# Blender 3.1.0
# www.blender.org
o Cube.002
v -8.674719 -0.934408 9.949846
v -8.674719 -0.429226 9.949846
v -8.674719 -0.934408 6.701780
v -8.674719 -0.429226 6.701780
v -5.426653 -0.934408 9.949846
v -5.426653 -0.429226 9.949846
v -5.426653 -0.934408 6.701780
v -5.426653 -0.429226 6.701780
v -3.566515 -0.934408 9.949846
v -3.566515 -0.429226 9.949846
v -3.566515 -0.934408 6.701780
v -3.566515 -0.429226 6.701780
v -0.318450 -0.934408 9.949846
v -0.318450 -0.429226 9.949846
v -0.318450 -0.934408 6.701780
v -0.318450 -0.429226 6.701780
v -8.674719 -0.568806 9.712102
v -8.278845 0.606587 9.316228
v -8.674719 -0.568806 6.702735
v -8.278845 0.606587 7.098609
v -5.426653 -0.568806 9.712102
v -5.822528 0.606587 9.316228
v -5.426653 -0.568806 6.702735
v -5.822528 0.606587 7.098609
v -3.566515 -0.568806 9.712102
v -3.093199 0.606587 9.238787
v -3.566515 -0.568806 6.702735
v -3.093199 0.606587 7.176051
v -0.318450 -0.568806 9.712102
v -0.791766 0.606587 9.238787
v -0.318450 -0.568806 6.702735
v -0.791766 0.606587 7.176051
v -0.512333 -0.934408 10.398275
v -0.512333 -0.429226 10.398275
v -0.933978 -0.934408 7.177693
v -0.933978 -0.429226 7.177693
v 2.708249 -0.934408 9.976629
v 2.708249 -0.429226 9.976629
v 2.286603 -0.934408 6.756048
v 2.286603 -0.429226 6.756048
v -0.543195 -0.568806 10.162543
v -0.543195 0.606587 10.162543
v -0.933854 -0.568806 7.178640
v -0.933854 0.606587 7.178640
v 2.677387 -0.568806 9.740897
v 2.677387 0.606587 9.740897
v 2.286727 -0.568806 6.756995
v 2.286727 0.606587 6.756995
v -3.566515 0.606587 9.712102
v -3.566515 0.606587 6.702735
v -0.318450 0.606587 6.702735
v -0.318450 0.606587 9.712102
v -3.076582 5.042870 6.702735
v -0.318450 5.042870 6.702735
v -3.093199 5.042870 7.176051
v -0.791766 5.042870 7.176051
v -8.674719 0.606587 9.712102
v -8.674719 0.606587 6.702735
v -5.426653 0.606587 6.702735
v -5.426653 0.606587 9.712102
v -8.674719 5.918148 6.702735
v -5.818954 5.918148 6.702735
v -8.278845 5.918148 7.098609
v -5.822528 5.918148 7.098609
v 1.402192 -0.953187 7.484369
v 0.854823 -0.526562 7.484369
v 0.875574 -0.526562 7.486413
v 0.895527 -0.526562 7.492466
v 0.913916 -0.526562 7.502295
v 0.930035 -0.526562 7.515523
v 0.943263 -0.526562 7.531641
v 0.953093 -0.526562 7.550030
v 0.959145 -0.526562 7.569984
v 0.961189 -0.526562 7.590735
v 0.959145 -0.526562 7.611485
v 0.953093 -0.526562 7.631439
v 0.943263 -0.526562 7.649828
v 0.930035 -0.526562 7.665946
v 0.913916 -0.526562 7.679174
v 0.895527 -0.526562 7.689004
v 0.875574 -0.526562 7.695056
v 0.854823 -0.526562 7.697100
v 0.834072 -0.526562 7.695056
v 0.814119 -0.526562 7.689004
v 0.795729 -0.526562 7.679174
v 0.779612 -0.526562 7.665946
v 0.766383 -0.526562 7.649828
v 0.756554 -0.526562 7.631439
v 0.750501 -0.526562 7.611485
v 0.748457 -0.526562 7.590735
v 0.750501 -0.526562 7.569984
v 0.756554 -0.526562 7.550030
v 0.766383 -0.526562 7.531641
v 0.779612 -0.526562 7.515523
v 0.795729 -0.526562 7.502295
v 0.814119 -0.526562 7.492466
v 0.834072 -0.526562 7.486413
v 1.422944 -0.953187 7.486413
v 1.442897 -0.953187 7.492466
v 1.461286 -0.953187 7.502295
v 1.477404 -0.953187 7.515523
v 1.490632 -0.953187 7.531641
v 1.500462 -0.953187 7.550030
v 1.506515 -0.953187 7.569984
v 1.508558 -0.953187 7.590735
v 1.506515 -0.953187 7.611485
v 1.500462 -0.953187 7.631439
v 1.490632 -0.953187 7.649828
v 1.477404 -0.953187 7.665946
v 1.461286 -0.953187 7.679174
v 1.442897 -0.953187 7.689004
v 1.422944 -0.953187 7.695056
v 1.402192 -0.953187 7.697100
v 1.381441 -0.953187 7.695056
v 1.361488 -0.953187 7.689004
v 1.343098 -0.953187 7.679174
v 1.326981 -0.953187 7.665946
v 1.313753 -0.953187 7.649828
v 1.303923 -0.953187 7.631439
v 1.297870 -0.953187 7.611485
v 1.295827 -0.953187 7.590735
v 1.297870 -0.953187 7.569984
v 1.303923 -0.953187 7.550030
v 1.313753 -0.953187 7.531641
v 1.326981 -0.953187 7.515523
v 1.343098 -0.953187 7.502295
v 1.361488 -0.953187 7.492466
v 1.381441 -0.953187 7.486413
v 1.117338 -0.953187 7.484369
v 1.138089 -0.953187 7.486413
v 1.158042 -0.953187 7.492466
v 1.176432 -0.953187 7.502295
v 1.192550 -0.953187 7.515523
v 1.205778 -0.953187 7.531641
v 1.215608 -0.953187 7.550030
v 1.221660 -0.953187 7.569984
v 1.223704 -0.953187 7.590735
v 1.221660 -0.953187 7.611485
v 1.215608 -0.953187 7.631439
v 1.205778 -0.953187 7.649828
v 1.192550 -0.953187 7.665946
v 1.176432 -0.953187 7.679174
v 1.158042 -0.953187 7.689004
v 1.138089 -0.953187 7.695056
v 1.117338 -0.953187 7.697100
v 1.096587 -0.953187 7.695056
v 1.076634 -0.953187 7.689004
v 1.058244 -0.953187 7.679174
v 1.042127 -0.953187 7.665946
v 1.028898 -0.953187 7.649828
v 1.019069 -0.953187 7.631439
v 1.013016 -0.953187 7.611485
v 1.010972 -0.953187 7.590735
v 1.013016 -0.953187 7.569984
v 1.019069 -0.953187 7.550030
v 1.028898 -0.953187 7.531641
v 1.042127 -0.953187 7.515523
v 1.058244 -0.953187 7.502295
v 1.076634 -0.953187 7.492466
v 1.096587 -0.953187 7.486413
v -0.318450 3.564109 6.702735
v -0.318450 2.085348 6.702735
v -0.791766 2.085348 7.176051
v -0.791766 3.564109 7.176051
v -8.278845 4.147628 7.098609
v -8.278845 2.377107 7.098609
v -8.674719 4.147628 6.702735
v -8.674719 2.377107 6.702735
v -0.318450 2.811290 6.702735
v -0.791766 2.811290 7.176051
v -8.278845 3.246277 7.098609
v -8.674719 3.246277 6.702735
v -0.791766 3.875786 7.176051
v -0.318450 3.875786 6.702735
v -8.278845 4.520799 7.098609
v -8.674719 4.520799 6.702735
v -3.566515 -0.107618 9.712102
v -3.566515 0.145399 9.712102
v -3.566515 0.145399 6.702735
v -3.566515 -0.107618 6.702735
v -0.318450 0.145399 6.702735
v -0.318450 -0.107618 6.702735
v -0.318450 0.145399 9.712102
v -0.318450 -0.107618 9.712102
v -3.428407 -0.107618 9.584144
v -3.428407 0.145399 9.584144
v -3.428407 0.145399 6.830694
v -3.428407 -0.107618 6.830694
v -0.456558 0.145399 6.830694
v -0.456558 -0.107618 6.830694
v -0.456558 0.145399 9.584144
v -0.456558 -0.107618 9.584144
v -3.566515 -0.568806 8.207418
v -3.566515 0.606587 8.207418
v -0.318450 -0.568806 8.207418
v -0.318450 0.606587 8.207418
v -3.093199 0.606587 8.207418
v -0.791766 0.606587 8.207418
v -0.318450 -0.107618 8.207418
v -0.318450 0.145399 8.207418
v -3.566515 -0.107618 8.207418
v -3.566515 0.145399 8.207418
v -0.456558 -0.107618 8.207418
v -0.456558 0.145399 8.207418
v -3.428407 -0.107618 8.207418
v -3.428407 0.145399 8.207418
v -8.674719 -0.568806 8.207418
v -8.674719 0.606587 8.207418
v -5.426653 -0.568806 8.207418
v -5.426653 0.606587 8.207418
v -8.278845 0.606587 8.207418
v -5.822528 0.606587 8.207418
v -8.674719 0.220394 9.712102
v -8.674719 0.220394 6.702735
v -5.426653 0.220394 6.702735
v -5.426653 0.220394 9.712102
v -5.426653 0.220394 8.207418
v -8.674719 0.220394 8.207418
v -3.566515 0.606587 3.521759
v -0.318450 0.606587 3.521759
v -8.674719 0.606587 3.521759
v -5.426653 0.606587 3.521759
v -0.318450 3.564109 3.521759
v -0.318450 2.085348 3.521759
v -8.674719 4.147628 3.521759
v -8.674719 2.377107 3.521759
v -0.318450 2.811290 3.521759
v -8.674719 3.246277 3.521759
v -0.318450 3.875786 3.521759
v -8.674719 4.520799 3.521759
v -3.181069 4.096749 3.521759
v -3.217535 3.766552 3.521759
v -3.305859 2.966800 3.521759
v -3.391356 2.192639 3.521759
v -5.698783 4.291089 3.521759
v -5.672705 3.937997 3.521759
v -5.609832 3.086734 3.521759
v -5.549361 2.267985 3.521759
v -3.165716 4.235774 3.521759
v -3.076582 5.042870 4.341008
v -0.318450 4.235307 3.521759
v -0.318450 5.042870 4.341008
v -8.674719 5.918148 4.341008
v -8.674719 5.065796 3.521759
v -5.818954 5.918148 4.341008
v -5.755904 5.064471 3.521759
vn -1.0000 -0.0000 -0.0000
vn -0.0000 -0.0000 -1.0000
vn 1.0000 -0.0000 -0.0000
vn -0.0000 -0.0000 1.0000
vn -0.0000 -1.0000 -0.0000
vn -0.0000 1.0000 -0.0000
vn -0.0403 -0.9992 -0.0000
vn -0.9915 -0.0000 0.1298
vn -0.1298 -0.0000 -0.9915
vn 0.9915 -0.0000 -0.1298
vn 0.1298 -0.0000 0.9915
vn 0.7071 -0.0000 0.7071
vn 0.3046 0.9524 0.0071
vn -0.7071 -0.0000 0.7071
vn 0.3041 0.9527 -0.0000
vn 0.0001 0.7123 -0.7019
vn 0.0002 0.6927 -0.7212
vn 0.2184 0.6836 -0.6964
vt 0.960230 0.577036
vt 0.623953 0.738549
vt 0.935110 0.577036
vt 0.623953 0.738549
vt 0.960230 0.415523
vt 0.198904 0.577429
vt 0.623953 0.577036
vt 0.935109 0.415523
vt 0.173784 0.577429
vt 0.623954 0.900062
vt 0.951946 0.161496
vt 0.960230 0.738494
vt 0.785466 0.738549
vt 0.926826 0.161496
vt 0.935110 0.738494
vt 0.785425 0.738549
vt 0.198904 0.415924
vt 0.951946 0.322993
vt 0.785466 0.577036
vt 0.173784 0.415924
vt 0.926826 0.322993
vt 0.785426 0.900062
vt 0.960190 0.900046
vt 0.977067 0.000000
vt 0.264122 0.799422
vt 0.935070 0.900046
vt 0.951946 0.000000
vt 0.607298 0.841159
vt 0.960190 0.738549
vt 0.198904 0.738933
vt 0.264122 0.637909
vt 0.935070 0.738549
vt 0.173784 0.738933
vt 0.607297 0.679645
vt 0.951946 0.000000
vt 0.977067 0.161459
vt 0.425635 0.799422
vt 0.926826 0.000000
vt 0.951946 0.161459
vt 0.445826 0.841159
vt 0.198904 0.577429
vt 0.951946 0.161496
vt 0.425635 0.637909
vt 0.173784 0.577429
vt 0.926826 0.161496
vt 0.445825 0.679645
vt 0.926826 0.323026
vt 0.264122 0.980936
vt 0.264122 0.415925
vt 0.757497 0.019681
vt 0.777182 0.323026
vt 0.322570 0.960927
vt 0.264122 0.831308
vt 0.647224 0.019681
vt 0.623953 0.415523
vt 0.926826 0.161513
vt 0.264122 0.577383
vt 0.058448 0.831465
vt 0.757497 0.141792
vt 0.777182 0.161513
vt 0.058448 0.981093
vt 0.322570 0.799422
vt 0.623687 0.273695
vt 0.647224 0.141792
vt 0.935070 0.900062
vt 1.000000 0.000000
vt 0.491691 0.990787
vt 0.753646 0.277475
vt 0.445216 0.578815
vt 0.491691 0.841159
vt 0.785426 0.900062
vt 0.651074 0.277476
vt 0.627538 0.137977
vt 0.935070 0.738549
vt 1.000000 0.161459
vt 0.468758 0.841159
vt 0.753646 0.391887
vt 0.445216 0.417311
vt 0.468758 0.990787
vt 0.785426 0.738549
vt 0.149644 0.415924
vt 0.651074 0.391888
vt 0.960190 0.738549
vt 0.951946 0.322134
vt 0.623953 0.577036
vt 0.985311 0.738549
vt 0.977067 0.322134
vt 0.161473 0.831465
vt 0.960190 0.898982
vt 0.985351 0.737391
vt 0.623953 0.415523
vt 0.985311 0.898982
vt 0.960230 0.737391
vt 0.161473 0.669953
vt 0.985350 0.415523
vt 0.951946 0.161496
vt 0.785466 0.577036
vt 0.960230 0.415523
vt 0.977067 0.161496
vt 0.000000 0.831454
vt 0.985351 0.577036
vt 0.985350 0.575955
vt 0.785466 0.415523
vt 0.960230 0.577036
vt 0.960230 0.575955
vt 0.000000 0.669941
vt 0.175343 0.980107
vt 0.322570 0.960060
vt 0.777182 0.000000
vt 0.116895 0.980107
vt 0.381018 0.960060
vt 0.785466 0.577006
vt 0.175343 0.831465
vt 0.439465 0.959778
vt 0.926826 0.000000
vt 0.116895 0.831465
vt 0.381018 0.959778
vt 0.935109 0.576996
vt 0.116895 0.831465
vt 0.322570 0.799422
vt 0.777182 0.161513
vt 0.058448 0.831465
vt 0.381018 0.799422
vt 0.785466 0.415534
vt 0.439465 0.799422
vt 0.116895 0.980107
vt 0.926826 0.161513
vt 0.381018 0.799422
vt 0.058448 0.980107
vt 0.935109 0.415523
vt 0.205675 0.669849
vt 0.777182 0.253945
vt 0.800115 0.323026
vt 0.175971 0.900438
vt 0.627538 0.253946
vt 0.604002 0.161513
vt 0.175971 0.738934
vt 0.173784 0.415924
vt 0.627538 0.415418
vt 0.491691 0.990787
vt 0.264122 0.417311
vt 0.604002 0.000000
vt 0.491691 0.841159
vt 0.205675 0.831307
vt 0.777182 0.415417
vt 0.287659 0.138025
vt 0.173784 0.636523
vt 0.287659 0.000909
vt 0.264122 0.637909
vt 0.264122 0.138851
vt 0.264122 0.024439
vt 0.149644 0.636523
vt 0.205675 0.415925
vt 0.777182 0.000000
vt 0.205675 0.980936
vt 0.205675 0.831308
vt 0.264122 0.960927
vt 0.627538 0.000001
vt 0.603986 0.415523
vt 0.264122 0.799422
vt 0.627538 0.161473
vt 0.000000 0.981093
vt 0.604002 0.254010
vt 0.205675 0.577383
vt 0.777182 0.161472
vt 0.287670 0.417311
vt 0.603986 0.679645
vt 0.287670 0.275342
vt 0.267985 0.397631
vt 0.623953 0.679645
vt 0.267985 0.275519
vt 0.157401 0.656978
vt 0.162079 0.637698
vt 0.162941 0.637122
vt 0.163899 0.636725
vt 0.164916 0.636523
vt 0.165953 0.636523
vt 0.166970 0.636725
vt 0.167928 0.637122
vt 0.168790 0.637698
vt 0.169523 0.638431
vt 0.170099 0.639293
vt 0.170496 0.640251
vt 0.170698 0.641268
vt 0.170698 0.642305
vt 0.170496 0.643322
vt 0.170099 0.644280
vt 0.169523 0.645142
vt 0.168790 0.645875
vt 0.167928 0.646451
vt 0.166970 0.646848
vt 0.165953 0.647050
vt 0.164916 0.647050
vt 0.163899 0.646848
vt 0.162941 0.646451
vt 0.162079 0.645875
vt 0.161346 0.645142
vt 0.160770 0.644280
vt 0.160373 0.643322
vt 0.160171 0.642305
vt 0.160171 0.641268
vt 0.160373 0.640251
vt 0.160770 0.639293
vt 0.161346 0.638431
vt 0.156443 0.657375
vt 0.155426 0.657578
vt 0.154389 0.657578
vt 0.153372 0.657375
vt 0.152414 0.656978
vt 0.151552 0.656402
vt 0.150819 0.655669
vt 0.150243 0.654807
vt 0.149846 0.653849
vt 0.149644 0.652832
vt 0.149644 0.651795
vt 0.149846 0.650779
vt 0.150243 0.649821
vt 0.150819 0.648958
vt 0.151552 0.648225
vt 0.152414 0.647649
vt 0.153372 0.647253
vt 0.154389 0.647050
vt 0.155426 0.647050
vt 0.156443 0.647252
vt 0.157401 0.647649
vt 0.158263 0.648225
vt 0.158996 0.648958
vt 0.159572 0.649821
vt 0.159969 0.650779
vt 0.160171 0.651795
vt 0.160171 0.652832
vt 0.159969 0.653849
vt 0.159572 0.654807
vt 0.158996 0.655669
vt 0.158263 0.656402
vt 0.151552 0.637698
vt 0.152414 0.637122
vt 0.153372 0.636725
vt 0.154389 0.636523
vt 0.155426 0.636523
vt 0.156443 0.636725
vt 0.157401 0.637122
vt 0.158263 0.637698
vt 0.158996 0.638431
vt 0.159572 0.639293
vt 0.159969 0.640251
vt 0.160171 0.641268
vt 0.160171 0.642305
vt 0.159969 0.643322
vt 0.159572 0.644280
vt 0.158996 0.645142
vt 0.158263 0.645875
vt 0.157401 0.646451
vt 0.156443 0.646848
vt 0.155426 0.647050
vt 0.154389 0.647050
vt 0.153372 0.646848
vt 0.152414 0.646451
vt 0.151552 0.645875
vt 0.150819 0.645142
vt 0.150243 0.644280
vt 0.149846 0.643322
vt 0.149644 0.642305
vt 0.149644 0.641268
vt 0.149846 0.640251
vt 0.150243 0.639293
vt 0.150819 0.638431
vt 0.173784 0.562990
vt 0.264122 0.564376
vt 0.173784 0.489457
vt 0.264122 0.490844
vt 0.149644 0.489457
vt 0.149644 0.562990
vt 0.623953 0.591604
vt 0.623953 0.503564
vt 0.603986 0.591604
vt 0.603986 0.503564
vt 0.173784 0.525555
vt 0.264122 0.526942
vt 0.149644 0.525555
vt 0.623953 0.546784
vt 0.603986 0.546784
vt 0.149644 0.578488
vt 0.173784 0.578488
vt 0.264122 0.579875
vt 0.623953 0.610161
vt 0.603986 0.610161
vt 0.977067 0.000000
vt 0.785466 0.738509
vt 0.468758 0.990787
vt 0.149644 0.577437
vt 0.228608 0.669849
vt 0.823048 0.323026
vt 0.198904 0.900438
vt 0.000000 0.577437
vt 0.422283 0.578815
vt 0.468758 0.841159
vt 0.935110 0.738508
vt 0.198904 0.738934
vt 0.000000 0.415924
vt 0.514624 0.990787
vt 0.422283 0.417311
vt 0.935110 0.577036
vt 0.445825 0.990787
vt 0.514624 0.841159
vt 0.228608 0.831307
vt 0.149644 0.415924
vt 0.977067 0.161459
vt 0.445825 0.841159
vt 0.785466 0.577037
vt 0.619879 0.679645
vt 0.791829 0.731643
vt 0.514624 0.841159
vt 0.607298 0.679645
vt 0.527206 0.841159
vt 0.143281 0.570570
vt 0.006363 0.570570
vt 0.432635 0.726585
vt 0.527206 0.978062
vt 0.445216 0.726585
vt 0.514624 0.978062
vt 0.928747 0.731642
vt 0.432635 0.578815
vt 0.619879 0.827373
vt 0.006363 0.422792
vt 0.445216 0.578815
vt 0.928747 0.583902
vt 0.607298 0.827373
vt 0.143281 0.422792
vt 0.607298 0.827373
vt 0.619879 0.964277
vt 0.619879 0.827373
vt 0.607298 0.964277
vt 0.791829 0.583903
vt 0.491691 0.915973
vt 0.860248 0.900062
vt 0.800115 0.397840
vt 0.800115 0.415518
vt 0.702360 0.253946
vt 0.468758 0.915973
vt 0.860248 0.738549
vt 0.702360 0.415418
vt 0.491691 0.915973
vt 0.702360 0.277476
vt 0.702360 0.391888
vt 0.860288 0.577037
vt 0.445825 0.915973
vt 0.074822 0.415924
vt 0.514624 0.915973
vt 0.860288 0.738508
vt 0.468758 0.915973
vt 0.823048 0.397840
vt 0.074822 0.577437
vt 0.777182 0.415518
vt 0.860288 0.583902
vt 0.607298 0.895825
vt 0.619879 0.895825
vt 0.074822 0.422792
vt 0.860288 0.731643
vt 0.514624 0.909610
vt 0.527206 0.909610
vt 0.074822 0.570570
vt 0.852004 0.323026
vt 0.264122 0.906122
vt 0.702360 0.000000
vt 0.205675 0.906122
vt 0.852004 0.161513
vt 0.058448 0.906279
vt 0.800115 0.323026
vt 0.000000 0.906279
vt 0.702360 0.161472
vt 0.702360 0.019681
vt 0.702360 0.141792
vt 0.224879 0.980936
vt 0.224879 0.415925
vt 0.283326 0.960927
vt 0.224879 0.831308
vt 0.019204 0.981093
vt 0.283326 0.799422
vt 0.149644 0.669941
vt 0.019204 0.831465
vt 0.224879 0.577383
vt 0.074822 0.669941
vt 0.780911 0.323026
vt 0.019204 0.906279
vt 0.224879 0.906122
vt 0.445825 0.161513
vt 0.000000 0.254420
vt 0.422283 0.417311
vt 0.445825 0.000000
vt 0.000000 0.415924
vt 0.445825 0.415523
vt 0.000000 0.000423
vt 0.445825 0.254010
vt 0.000000 0.161928
vt 0.422283 0.564376
vt 0.147066 0.415924
vt 0.422283 0.490844
vt 0.073533 0.415924
vt 0.445825 0.591604
vt 0.176082 0.000423
vt 0.445825 0.503564
vt 0.088041 0.000423
vt 0.422283 0.526942
vt 0.109631 0.415924
vt 0.445825 0.546784
vt 0.131261 0.000423
vt 0.422283 0.579875
vt 0.162564 0.415924
vt 0.445825 0.610161
vt 0.194638 0.000423
vt 0.173552 0.273586
vt 0.157132 0.271772
vt 0.117364 0.267381
vt 0.078868 0.263129
vt 0.183215 0.148396
vt 0.165658 0.149693
vt 0.123328 0.152820
vt 0.082615 0.155827
vt 0.445825 0.141547
vt 0.180465 0.274349
vt 0.405098 0.138024
vt 0.220598 0.278358
vt 0.422283 0.597752
vt 0.445825 0.000000
vt 0.180442 0.415924
vt 0.381549 0.637909
vt 0.405098 0.000908
vt 0.405109 0.417310
vt 0.486559 0.679645
vt 0.264122 0.000000
vt 0.445825 0.637261
vt 0.221738 0.000423
vt 0.405109 0.275341
vt 0.264122 0.141998
vt 0.221673 0.145556
s 0
f 1/1/1 2/3/1 4/8/1 3/5/1
f 3/6/2 4/9/2 8/20/2 7/17/2
f 7/18/3 8/21/3 6/14/3 5/11/3
f 5/12/4 6/15/4 2/3/4 1/1/4
f 3/7/5 7/19/5 5/13/5 1/2/5
f 8/22/6 4/10/6 2/4/6 6/16/6
f 9/23/1 10/26/1 12/32/1 11/29/1
f 11/30/2 12/33/2 16/44/2 15/41/2
f 15/42/3 16/45/3 14/38/3 13/35/3
f 13/36/4 14/39/4 10/27/4 9/24/4
f 11/31/5 15/43/5 13/37/5 9/25/5
f 16/46/6 12/34/6 10/28/6 14/40/6
f 218/386/1 208/366/1 58/156/1 214/377/1
f 214/376/2 58/157/2 59/160/2 215/379/2
f 202/353/7 178/291/7 216/380/7 217/383/7
f 216/382/4 60/164/4 57/153/4 213/375/4
f 207/363/5 209/367/5 21/56/5 17/47/5
f 202/352/1 194/337/1 50/133/1 179/293/1
f 179/294/2 50/134/2 51/137/2 181/299/2
f 200/349/3 196/343/3 52/143/3 183/305/3
f 183/306/4 52/144/4 49/131/4 178/292/4
f 193/336/5 195/341/5 29/74/5 25/65/5
f 33/83/8 34/86/8 36/92/8 35/89/8
f 35/90/9 36/93/9 40/104/9 39/101/9
f 39/102/10 40/105/10 38/98/10 37/95/10
f 37/96/11 38/99/11 34/87/11 33/84/11
f 35/91/5 39/103/5 37/97/5 33/85/5
f 40/106/6 36/94/6 34/88/6 38/100/6
f 41/107/8 42/110/8 44/116/8 43/113/8
f 43/114/9 44/117/9 48/128/9 47/125/9
f 47/126/10 48/129/10 46/122/10 45/119/10
f 45/120/11 46/123/11 42/111/11 41/108/11
f 43/115/5 47/127/5 45/121/5 41/109/5
f 48/130/6 44/118/6 42/112/6 46/124/6
f 197/344/6 28/72/6 50/135/6 194/339/6
f 198/345/6 30/77/6 52/145/6 196/342/6
f 30/77/6 26/68/6 49/132/6 52/145/6
f 55/150/6 56/151/6 54/148/6 53/146/6
f 173/283/12 174/284/12 54/147/12 56/152/12
f 211/372/6 20/54/6 58/158/6 208/365/6
f 62/168/13 64/171/13 55/150/13 53/146/13
f 212/373/6 22/59/6 60/165/6 210/371/6
f 22/59/6 18/50/6 57/154/6 60/165/6
f 63/169/6 64/171/6 62/168/6 61/166/6
f 176/287/14 175/286/14 63/170/14 61/167/14
f 24/63/5 59/163/5 50/136/5 28/73/5
f 129/236/5 130/237/5 131/238/5 132/239/5 133/240/5 134/241/5 135/242/5 136/243/5 137/244/5 138/245/5 139/246/5 140/247/5 141/248/5 142/249/5 143/250/5 144/251/5 145/252/5 146/253/5 147/254/5 148/255/5 149/256/5 150/257/5 151/258/5 152/259/5 153/260/5 154/261/5 155/262/5 156/263/5 157/264/5 158/265/5 159/266/5 160/267/5
f 65/172/5 98/205/5 99/206/5 100/207/5 101/208/5 102/209/5 103/210/5 104/211/5 105/212/5 106/213/5 107/214/5 108/215/5 109/216/5 110/217/5 111/218/5 112/219/5 113/220/5 114/221/5 115/222/5 116/223/5 117/224/5 118/225/5 119/226/5 120/227/5 121/228/5 122/229/5 123/230/5 124/231/5 125/232/5 126/233/5 127/234/5 128/235/5
f 66/173/6 97/204/6 96/203/6 95/202/6 94/201/6 93/200/6 92/199/6 91/198/6 90/197/6 89/196/6 88/195/6 87/194/6 86/193/6 85/192/6 84/191/6 83/190/6 82/189/6 81/188/6 80/187/6 79/186/6 78/185/6 77/184/6 76/183/6 75/182/6 74/181/6 73/180/6 72/179/6 71/178/6 70/177/6 69/176/6 68/175/6 67/174/6
f 58/159/14 20/55/14 166/275/14 168/277/14
f 172/282/14 171/281/14 165/274/14 167/276/14
f 32/81/12 51/138/12 162/270/12 163/272/12
f 170/280/12 169/278/12 161/268/12 164/273/12
f 163/272/12 162/270/12 169/278/12 170/280/12
f 168/277/14 166/275/14 171/281/14 172/282/14
f 167/276/14 165/274/14 175/286/14 176/287/14
f 164/273/12 161/268/12 174/284/12 173/283/12
f 29/75/4 184/308/4 177/288/4 25/66/4
f 183/307/5 178/291/5 186/316/5 191/329/5
f 195/340/3 199/347/3 184/309/3 29/76/3
f 200/348/5 183/307/5 191/329/5 204/358/5
f 27/69/2 180/296/2 182/302/2 31/78/2
f 179/295/5 181/300/5 189/325/5 187/317/5
f 193/335/1 201/351/1 180/297/1 27/70/1
f 202/353/5 179/295/5 187/317/5 206/362/5
f 192/332/4 191/330/4 186/314/4 185/311/4
f 203/356/3 204/357/3 191/331/3 192/333/3
f 188/320/2 187/318/2 189/323/2 190/326/2
f 205/360/1 206/361/1 187/319/1 188/321/1
f 201/350/6 177/289/6 185/312/6 205/359/6
f 182/303/6 180/298/6 188/322/6 190/327/6
f 199/346/6 182/303/6 190/327/6 203/355/6
f 177/289/6 184/310/6 192/334/6 185/312/6
f 184/310/6 199/346/6 203/355/6 192/334/6
f 180/298/6 201/350/6 205/359/6 188/322/6
f 185/313/1 186/315/1 206/361/1 205/360/1
f 190/328/3 189/324/3 204/357/3 203/356/3
f 178/291/5 202/353/5 206/362/5 186/316/5
f 25/67/1 177/290/1 201/351/1 193/335/1
f 181/300/5 200/348/5 204/358/5 189/325/5
f 31/79/3 182/304/3 199/347/3 195/340/3
f 32/82/6 198/345/6 196/342/6 51/139/6
f 26/68/6 197/344/6 194/339/6 49/132/6
f 27/71/5 31/80/5 195/341/5 193/336/5
f 181/301/3 51/140/3 196/343/3 200/349/3
f 194/338/2 202/354/2 217/384/2 210/369/2
f 24/64/6 212/373/6 210/371/6 59/161/6
f 18/50/6 211/372/6 208/365/6 57/154/6
f 19/51/5 23/60/5 209/367/5 207/363/5
f 215/378/3 59/162/3 210/370/3 217/385/3
f 213/374/1 57/155/1 208/366/1 218/386/1
f 17/48/1 213/374/1 218/386/1 207/364/1
f 23/61/3 215/378/3 217/385/3 209/368/3
f 21/57/4 216/382/4 213/375/4 17/49/4
f 209/368/3 217/385/3 216/381/3 21/58/3
f 19/52/2 214/376/2 215/379/2 23/62/2
f 207/364/1 218/386/1 214/377/1 19/53/1
f 178/292/4 49/131/4 60/164/4 216/382/4
f 49/132/6 194/339/6 210/371/6 60/165/6
f 169/279/3 162/271/3 224/398/3 227/404/3
f 59/163/5 58/159/5 221/392/5 222/394/5
f 58/159/1 168/277/1 226/402/1 221/392/1
f 162/271/3 51/141/3 220/389/3 224/398/3
f 53/146/6 54/148/6 242/428/6 240/422/6
f 235/416/2 230/411/2 244/433/2 246/436/2
f 161/269/3 169/279/3 227/404/3 223/396/3
f 51/142/5 50/136/5 219/387/5 220/390/5
f 167/276/1 176/287/1 230/410/1 225/400/1
f 61/166/6 62/168/6 245/434/6 243/429/6
f 50/136/5 59/163/5 222/394/5 219/387/5
f 231/412/2 235/416/2 246/436/2 239/421/2
f 168/277/1 172/282/1 228/406/1 226/402/1
f 174/285/3 161/269/3 223/396/3 229/408/3
f 172/282/1 167/276/1 225/400/1 228/406/1
f 176/287/1 61/167/1 243/430/1 244/432/1 230/410/1
f 219/388/2 234/415/2 224/399/2 220/391/2
f 238/419/2 226/403/2 228/407/2 237/418/2
f 237/418/2 228/407/2 225/401/2 236/417/2
f 236/417/2 225/401/2 230/411/2 235/416/2
f 224/399/2 234/415/2 233/414/2 227/405/2
f 227/405/2 233/414/2 232/413/2 223/397/2
f 223/397/2 232/413/2 231/412/2 229/409/2
f 62/168/15 53/146/15 240/422/15 245/434/15
f 222/395/2 221/393/2 226/403/2 238/419/2
f 234/415/2 238/419/2 237/418/2 233/414/2
f 233/414/2 237/418/2 236/417/2 232/413/2
f 232/413/2 236/417/2 235/416/2 231/412/2
f 54/149/3 174/285/3 229/408/3 241/424/3 242/427/3
f 219/388/2 222/395/2 238/419/2 234/415/2
f 240/422/16 242/428/16 241/425/16 239/420/16
f 243/431/17 245/435/17 246/436/17 244/433/17
f 239/421/18 246/436/18 245/435/18 240/423/18
f 229/409/2 231/412/2 239/421/2 241/426/2
