# Blender 3.1.0
# www.blender.org
o Cube.004
v -5.945914 -0.726622 7.506203
v -5.945914 0.145312 7.506203
v -5.208074 -0.726622 3.526244
v -5.208074 0.145312 3.526244
v -3.185443 -0.726622 7.506203
v -3.185443 0.145312 7.506203
v -3.923284 -0.726622 3.526244
v -3.923284 0.145312 3.526244
v -5.945914 -0.013678 7.506203
v -5.208074 -0.013678 3.526244
v -3.923284 -0.013678 3.526244
v -3.185443 -0.013678 7.506203
v -4.726413 0.145312 3.526244
v -4.404944 0.145312 3.526244
v -5.179955 -0.726622 7.506203
v -3.951403 -0.726622 7.506203
v -4.220329 0.145312 7.506203
v -4.911029 0.145312 7.506203
v -3.951403 -0.013678 7.506203
v -5.179955 -0.013678 7.506203
v -5.179955 -0.660896 3.782376
v -3.951403 -0.660896 3.782376
v -3.951403 -0.013678 3.782376
v -5.179955 -0.013678 3.782376
v -5.208074 -0.726622 6.409930
v -5.945914 -0.726622 6.718024
v -5.945914 0.145312 6.718024
v -5.208074 0.145312 6.409930
v -3.185443 -0.726622 6.718024
v -3.923284 -0.726622 6.409930
v -3.923284 0.145312 6.409930
v -3.185443 0.145312 6.718024
v -3.923284 -0.013678 6.409930
v -3.185443 -0.013678 6.718024
v -5.945914 -0.013678 6.718024
v -5.208074 -0.013678 6.409930
v -4.404944 0.145312 6.409930
v -4.220329 0.145312 6.718024
v -4.726413 0.145312 6.409930
v -4.911029 0.145312 6.718024
v -5.179955 -0.726622 9.671778
v -5.945914 -0.726622 9.671778
v -3.185443 -0.726622 9.671778
v -3.951403 -0.726622 9.671778
v -5.945914 -0.837962 6.718024
v -5.945914 -0.837962 7.506203
v -4.726413 -0.837962 3.526244
v -5.208074 -0.837962 3.526244
v -3.923284 -0.837962 6.409930
v -3.923284 -0.837962 3.526244
v -3.951403 -0.837962 7.506203
v -3.185443 -0.837962 7.506203
v -4.404944 -0.837962 3.526244
v -5.179955 -0.837962 7.506203
v -4.911029 -0.837962 6.718024
v -4.220329 -0.837962 6.718024
v -5.208074 -0.837962 6.409930
v -3.185443 -0.837962 6.718024
v -4.726413 -0.837962 6.409930
v -4.404944 -0.837962 6.409930
v -5.179955 -0.837962 9.671778
v -5.945914 -0.837962 9.671778
v -3.951403 -0.837962 9.671778
v -3.185443 -0.837962 9.671778
v -5.179955 -0.013678 6.712727
v -5.179955 -0.013678 4.575852
v -3.951403 -0.013678 4.575852
v -3.951403 -0.013678 6.712727
v -3.951403 -0.712617 6.712727
v -3.951403 -0.674901 4.575852
v -5.179955 -0.674901 4.575852
v -5.179955 -0.712617 6.712727
v -4.817451 -0.726622 7.506203
v -4.313907 -0.726622 7.506203
v -4.817451 -0.660896 3.782376
v -4.313907 -0.660896 3.782376
v -4.499799 -0.837962 3.526244
v -4.631559 -0.837962 3.526244
v -4.817451 -0.837962 7.506203
v -4.313907 -0.837962 7.506203
v -4.499799 -0.837962 6.409930
v -4.631559 -0.837962 6.409930
v -4.424131 -0.837962 6.718024
v -4.707227 -0.837962 6.718024
v -4.817451 -0.726622 9.671778
v -4.313907 -0.726622 9.671778
v -4.817451 -0.837962 9.671778
v -4.313907 -0.837962 9.671778
v -4.313907 -0.712617 6.712727
v -4.817451 -0.712617 6.712727
v -4.313907 -0.674901 4.575852
v -4.817451 -0.674901 4.575852
v -4.313907 -0.692287 6.713086
v -4.817451 -0.692287 6.713086
v -4.313907 -0.654571 4.576211
v -4.817451 -0.654571 4.576211
v -5.208074 -0.165213 6.321250
v -5.208074 -0.068316 6.321250
v -5.208074 -0.165213 6.146878
v -5.208074 -0.068316 6.002019
v -5.208074 -0.068316 6.146878
v -5.208074 -0.165213 6.002019
v -5.208074 -0.165213 5.671440
v -5.208074 -0.068316 5.827646
v -5.208074 -0.165213 5.827646
v -5.208074 -0.165213 5.497066
v -5.208074 -0.068316 5.497066
v -5.208074 -0.068316 5.671440
v -5.810612 -0.165213 6.661527
v -5.810612 -0.068316 6.661527
v -5.393013 -0.068316 6.487154
v -5.393013 -0.165213 6.487154
v -3.923284 -0.157638 5.827646
v -3.923284 -0.068316 6.002019
v -3.923284 -0.068316 6.146878
v -3.923284 -0.162733 5.671440
v -3.923284 -0.165213 5.671440
v -3.923284 -0.165213 5.497066
v -3.923284 -0.068316 5.497066
v -3.923284 -0.068316 5.671440
v -3.923284 -0.068316 5.827646
v -3.923284 -0.165213 6.321250
v -3.923284 -0.165213 6.146878
v -3.923284 -0.068316 6.321250
v -3.923284 -0.165213 5.827646
v -3.923284 -0.165213 6.002019
v -3.738345 -0.165213 6.487154
v -3.738345 -0.068316 6.487154
v -3.320746 -0.068316 6.661527
v -3.320746 -0.165213 6.661527
v -5.179955 -0.165213 6.661527
v -5.179955 -0.068316 6.661527
v -5.179955 -0.165213 6.321250
v -5.179955 -0.165213 6.487154
v -5.179955 -0.068316 6.321250
v -5.179955 -0.068316 6.487154
v -5.179955 -0.165213 6.002019
v -5.179955 -0.068316 6.146878
v -5.179955 -0.165213 6.146878
v -5.179955 -0.165213 5.671440
v -5.179955 -0.068316 5.827646
v -5.179955 -0.165213 5.827646
v -5.179955 -0.068316 5.497066
v -5.179955 -0.165213 5.497066
v -5.179955 -0.068316 5.671440
v -5.179955 -0.068316 6.002019
v -3.951403 -0.165213 6.661527
v -3.951403 -0.165213 6.487154
v -3.951403 -0.068316 6.661527
v -3.951403 -0.068316 6.321250
v -3.951403 -0.165213 6.321250
v -3.951403 -0.165213 6.146878
v -3.951403 -0.068316 6.487154
v -3.951403 -0.068316 5.827646
v -3.951403 -0.165213 6.002019
v -3.951403 -0.165213 5.827646
v -3.951403 -0.068316 6.002019
v -3.951403 -0.165213 5.671440
v -3.951403 -0.068316 5.497066
v -3.951403 -0.165213 5.497066
v -3.951403 -0.068316 5.671440
v -3.951403 -0.068316 6.146878
vn -1.3802 -0.0000 -0.0000
vn 1.3802 -0.0000 -0.0000
vn -0.0000 -0.0000 1.3802
vn -0.0000 0.6472 -0.0000
vn -0.0000 -0.6472 -0.0000
vn -0.0000 0.6468 0.0519
vn 0.5318 -0.0000 -1.2737
vn -0.5318 -0.0000 -1.2737
vn -0.0000 0.0054 -1.3802
vn -0.0000 -0.0054 1.3802
vn -0.0000 -0.0000 -1.3802
vt 0.697116 0.654884
vt 0.543909 0.580436
vt 0.260741 0.204527
vt 0.521481 0.654884
vt 0.521481 0.000000
vt 0.719544 0.580436
vt 0.895179 0.375887
vt 0.719544 0.375887
vt 0.591174 0.375887
vt 0.697116 0.915624
vt 0.436376 0.760968
vt 0.521481 0.204528
vt 0.260741 0.760968
vt 0.782222 0.000000
vt 0.521481 0.915624
vt 0.175635 0.852856
vt 0.712529 0.375887
vt 0.000000 0.852856
vt 0.553507 0.654884
vt 0.687518 0.580436
vt 0.751569 0.375887
vt 0.032026 0.852856
vt 0.292766 0.760968
vt 0.553507 0.915624
vt 0.636669 0.375887
vt 0.667034 0.375887
vt 0.697116 0.727233
vt 0.925831 0.000000
vt 0.333089 0.204528
vt 0.697116 0.843276
vt 0.863153 1.000000
vt 0.449132 0.204528
vt 0.684472 0.000000
vt 0.521481 0.817874
vt 0.619231 0.000000
vt 0.521481 0.752634
vt 0.553507 0.843276
vt 0.719544 1.000000
vt 0.979196 1.000000
vt 0.553507 0.727233
vt 0.782222 0.000000
vt 0.863153 1.000000
vt 0.912592 0.351734
vt 0.333089 0.556419
vt 0.449132 0.556419
vt 0.849914 0.648266
vt 0.979196 0.648266
vt 0.719544 0.648266
vt 0.863153 0.648266
vt 0.782222 0.351734
vt 0.917606 0.398314
vt 0.895179 0.648266
vt 0.543909 0.654884
vt 0.987299 0.398351
vt 0.521481 0.074439
vt 0.719544 0.654884
vt 0.987299 0.573986
vt 0.719544 0.648266
vt 0.591174 0.103537
vt 0.917606 0.573949
vt 0.995524 0.175635
vt 0.436376 0.835416
vt 0.175635 0.580477
vt 0.925831 0.175672
vt 0.712529 0.103537
vt 0.000000 0.580477
vt 0.925831 0.000037
vt 0.260741 0.835416
vt 0.782222 0.074439
vt 0.995524 0.000000
vt 0.032026 0.580477
vt 0.925831 0.032062
vt 0.292766 0.835416
vt 0.995524 0.032026
vt 0.687518 0.654884
vt 0.987299 0.541960
vt 0.751569 0.648266
vt 0.917606 0.541924
vt 0.667034 0.103537
vt 0.684471 0.074439
vt 0.636669 0.103537
vt 0.619231 0.074439
vt 0.198063 0.652826
vt 0.333089 0.000000
vt 0.543909 0.375887
vt 0.198063 0.580477
vt 0.260741 0.000000
vt 0.198063 0.841218
vt 0.436376 0.556419
vt 0.521481 0.000000
vt 0.198063 0.768869
vt 0.449132 0.000000
vt 0.521481 0.654884
vt 0.987299 0.375924
vt 0.260741 0.278997
vt 0.521481 0.580436
vt 0.260741 0.204550
vt 0.145553 0.580477
vt 0.191048 0.580477
vt 0.917606 0.375887
vt 0.198063 0.580477
vt 0.925831 0.198099
vt 0.069693 0.308098
vt 0.198063 0.852856
vt 0.069693 0.580477
vt 0.072349 0.204550
vt 0.458803 0.760968
vt 0.000000 0.204550
vt 0.115188 0.580477
vt 0.188392 0.204550
vt 0.162990 0.278997
vt 0.097750 0.278997
vt 0.917606 0.375887
vt 0.191048 0.308098
vt 0.917606 0.648266
vt 0.995524 0.198062
vt 0.458803 0.835416
vt 0.000000 0.278997
vt 0.145553 0.308098
vt 0.115188 0.308098
vt 0.220490 0.652826
vt 0.188392 0.000000
vt 0.260741 0.000000
vt 0.521481 0.375887
vt 0.220490 0.580477
vt 0.072349 0.000000
vt 0.220490 0.768869
vt 0.220490 0.841218
vt 0.458803 0.556419
vt 0.000000 0.000000
vt 0.782222 0.074948
vt 0.863153 0.925052
vt 0.782222 0.276787
vt 0.863153 0.723213
vt 0.719544 0.723213
vt 0.979196 0.723213
vt 0.719544 0.925052
vt 0.979196 0.925052
vt 0.860332 0.925052
vt 0.449132 0.279509
vt 0.852735 0.723213
vt 0.449132 0.481437
vt 0.915413 0.276787
vt 0.333089 0.481437
vt 0.923010 0.074948
vt 0.333089 0.279509
vt 0.367330 0.204528
vt 0.414892 0.204528
vt 0.367330 0.556419
vt 0.414892 0.556419
vt 0.124148 0.580477
vt 0.136593 0.580477
vt 0.154151 0.204550
vt 0.106589 0.204550
vt 0.124148 0.308098
vt 0.136593 0.308098
vt 0.117000 0.278997
vt 0.143740 0.278997
vt 0.198063 0.687066
vt 0.367330 0.000000
vt 0.198063 0.734629
vt 0.414892 0.000000
vt 0.154151 0.000000
vt 0.220490 0.687066
vt 0.106589 0.000000
vt 0.220490 0.734629
vt 0.414892 0.279509
vt 0.510459 0.758521
vt 0.224585 0.628039
vt 0.506365 0.556419
vt 0.367330 0.279509
vt 0.224585 0.580477
vt 0.414892 0.481437
vt 0.510459 0.556539
vt 0.518648 0.556419
vt 0.506365 0.758400
vt 0.367330 0.481437
vt 0.518648 0.603981
vt 0.506365 0.556419
vt 0.514553 0.758400
vt 0.220490 0.628039
vt 0.510459 0.556539
vt 0.458803 0.556419
vt 0.220490 0.580477
vt 0.506365 0.758347
vt 0.514553 0.556419
vt 0.510459 0.758521
vt 0.458803 0.758347
vt 0.514553 0.603981
vt 0.782093 0.639889
vt 0.375000 0.992014
vt 0.132986 0.750000
vt 0.762575 0.639889
vt 0.625000 0.992014
vt 0.867014 0.750000
vt 0.782093 0.623419
vt 0.375000 0.257986
vt 0.132986 0.500000
vt 0.762575 0.609736
vt 0.625000 0.992014
vt 0.867014 0.750000
vt 0.762575 0.623419
vt 0.625000 0.257986
vt 0.867014 0.500000
vt 0.782093 0.609736
vt 0.375000 0.992014
vt 0.132986 0.750000
vt 0.782093 0.578511
vt 0.375000 0.992014
vt 0.132986 0.750000
vt 0.762575 0.593266
vt 0.625000 0.257986
vt 0.867014 0.500000
vt 0.782093 0.593266
vt 0.375000 0.257986
vt 0.132986 0.500000
vt 0.782093 0.562041
vt 0.375000 0.257986
vt 0.132986 0.500000
vt 0.762575 0.562041
vt 0.625000 0.257986
vt 0.867014 0.500000
vt 0.762575 0.578511
vt 0.625000 0.992014
vt 0.867014 0.750000
vt 0.974519 0.511430
vt 0.375000 0.984472
vt 0.140528 0.750000
vt 0.974519 0.530948
vt 0.625000 0.984472
vt 0.859472 0.750000
vt 0.935075 0.530927
vt 0.625000 0.302377
vt 0.822623 0.500000
vt 0.935075 0.511409
vt 0.375000 0.302377
vt 0.177377 0.500000
vt 0.061024 0.635477
vt 0.394542 0.493603
vt 0.043031 0.619006
vt 0.625000 0.756397
vt 0.631397 0.750000
vt 0.043031 0.605324
vt 0.625000 0.493603
vt 0.631397 0.500000
vt 0.062050 0.650231
vt 0.381397 0.756397
vt 0.062550 0.650231
vt 0.375000 0.756397
vt 0.368603 0.750000
vt 0.062550 0.666702
vt 0.375000 0.493603
vt 0.368603 0.500000
vt 0.043031 0.666702
vt 0.625000 0.493603
vt 0.631397 0.500000
vt 0.043031 0.650231
vt 0.625000 0.756397
vt 0.631397 0.750000
vt 0.043031 0.635477
vt 0.625000 0.493603
vt 0.631397 0.500000
vt 0.062550 0.588853
vt 0.375000 0.756397
vt 0.368603 0.750000
vt 0.062550 0.605324
vt 0.375000 0.493603
vt 0.368603 0.500000
vt 0.043031 0.588853
vt 0.625000 0.756397
vt 0.631397 0.750000
vt 0.062550 0.635477
vt 0.375000 0.493603
vt 0.368603 0.500000
vt 0.062550 0.619006
vt 0.375000 0.756397
vt 0.368603 0.750000
vt 0.943300 0.062577
vt 0.375000 0.448387
vt 0.323387 0.500000
vt 0.943300 0.043059
vt 0.625000 0.448387
vt 0.676613 0.500000
vt 0.982744 0.043038
vt 0.625000 0.764763
vt 0.639763 0.750000
vt 0.982744 0.062556
vt 0.375000 0.764763
vt 0.360237 0.750000
vt 0.812746 0.079784
vt 0.375000 0.928822
vt 0.196178 0.750000
vt 0.793227 0.079784
vt 0.625000 0.928822
vt 0.803822 0.750000
vt 0.812746 0.111925
vt 0.375000 0.986857
vt 0.138143 0.750000
vt 0.812746 0.096254
vt 0.375000 0.321178
vt 0.196178 0.500000
vt 0.793227 0.111925
vt 0.625000 0.986857
vt 0.861857 0.750000
vt 0.793227 0.096254
vt 0.625000 0.321178
vt 0.803822 0.500000
vt 0.812746 0.142078
vt 0.375000 0.986857
vt 0.138143 0.750000
vt 0.793227 0.128395
vt 0.625000 0.263143
vt 0.861857 0.500000
vt 0.812746 0.128395
vt 0.375000 0.263143
vt 0.138143 0.500000
vt 0.812746 0.173303
vt 0.375000 0.986857
vt 0.138143 0.750000
vt 0.793227 0.158548
vt 0.625000 0.263143
vt 0.861857 0.500000
vt 0.812746 0.158548
vt 0.375000 0.263143
vt 0.138143 0.500000
vt 0.793227 0.189773
vt 0.625000 0.263143
vt 0.861857 0.500000
vt 0.812746 0.189773
vt 0.375000 0.263143
vt 0.138143 0.500000
vt 0.793227 0.173303
vt 0.625000 0.986857
vt 0.861857 0.750000
vt 0.793227 0.142078
vt 0.625000 0.986857
vt 0.861857 0.750000
vt 0.750068 0.920216
vt 0.375000 0.820413
vt 0.304587 0.750000
vt 0.750068 0.903746
vt 0.375000 0.429587
vt 0.304587 0.500000
vt 0.730549 0.920216
vt 0.625000 0.820413
vt 0.695413 0.750000
vt 0.730549 0.888075
vt 0.625000 0.761554
vt 0.636554 0.750000
vt 0.750068 0.888075
vt 0.375000 0.761554
vt 0.363446 0.750000
vt 0.750067 0.871605
vt 0.375000 0.488446
vt 0.363446 0.500000
vt 0.730549 0.903746
vt 0.625000 0.429587
vt 0.695413 0.500000
vt 0.730549 0.841452
vt 0.625000 0.488446
vt 0.636554 0.500000
vt 0.750068 0.857922
vt 0.375000 0.761554
vt 0.363446 0.750000
vt 0.750067 0.841452
vt 0.375000 0.488446
vt 0.363446 0.500000
vt 0.730549 0.857922
vt 0.625000 0.761554
vt 0.636554 0.750000
vt 0.750068 0.826697
vt 0.375000 0.761554
vt 0.363446 0.750000
vt 0.730549 0.810227
vt 0.625000 0.488446
vt 0.636554 0.500000
vt 0.750068 0.810227
vt 0.375000 0.488446
vt 0.363446 0.500000
vt 0.730549 0.826697
vt 0.625000 0.761554
vt 0.636554 0.750000
vt 0.730549 0.871605
vt 0.625000 0.488446
vt 0.636554 0.500000
s 0
f 36/77/1 28/58/1 4/8/1 10/21/1
f 34/73/2 32/68/2 6/13/2 12/23/2
f 20/40/3 18/36/3 2/4/3 9/19/3
f 40/82/4 27/55/4 2/5/4 18/35/4
f 15/27/3 20/40/3 9/19/3 1/1/3
f 29/62/2 34/73/2 12/23/2 5/11/2
f 104/211/1 108/223/1 103/208/1 105/214/1
f 101/202/1 100/199/1 102/205/1 99/196/1
f 36/77/1 98/193/1 97/190/1 25/52/1
f 98/193/1 36/77/1 10/21/1 3/7/1 25/52/1 97/190/1 99/196/1 102/205/1 105/214/1 103/208/1 106/217/1 107/220/1 108/223/1 104/211/1 100/199/1 101/202/1
f 5/10/3 12/24/3 19/37/3 16/30/3
f 67/136/5 66/134/5 24/49/5 23/47/5
f 32/69/4 38/80/4 17/33/4 6/14/4
f 38/80/4 40/82/4 18/35/4 17/33/4
f 46/97/5 54/110/5 61/122/5 62/123/5
f 7/16/2 30/63/2 49/101/2 50/104/2
f 12/24/3 6/15/3 17/34/3 19/37/3
f 19/37/3 17/34/3 18/36/3 20/40/3
f 91/173/6 70/142/6 22/45/6 76/150/6
f 70/141/1 67/135/1 23/48/1 22/46/1
f 66/133/2 71/143/2 21/43/2 24/50/2
f 1/2/1 26/53/1 45/93/1 46/96/1
f 1/2/1 46/96/1 62/124/1 42/85/1
f 30/64/7 29/61/7 58/116/7 49/102/7
f 14/26/4 13/25/4 39/81/4 37/79/4
f 37/79/4 39/81/4 40/82/4 38/80/4
f 8/17/4 14/26/4 37/79/4 31/65/4
f 31/65/4 37/79/4 38/80/4 32/69/4
f 1/2/1 9/20/1 35/75/1 26/53/1
f 111/232/8 36/78/8 25/51/8 26/54/8 35/76/8 110/229/8 109/226/8 112/235/8
f 35/76/8 36/78/8 111/232/8 110/229/8
f 114/240/2 115/243/2 123/266/2 126/275/2
f 33/71/2 30/63/2 122/263/2 124/269/2
f 120/257/2 121/260/2 113/238/2 116/246/2
f 117/248/2 116/246/2 113/238/2 125/272/2 126/275/2 123/266/2 122/263/2 30/63/2 7/16/2 11/22/2 33/71/2 124/269/2 115/243/2 114/240/2 121/260/2 120/257/2 119/254/2 118/251/2
f 129/284/7 34/74/7 29/61/7 30/64/7 33/72/7 128/281/7 127/278/7 130/287/7
f 33/72/7 34/74/7 129/284/7 128/281/7
f 13/25/4 4/9/4 28/59/4 39/81/4
f 39/81/4 28/59/4 27/55/4 40/82/4
f 26/54/8 25/51/8 57/113/8 45/94/8
f 29/62/2 5/11/2 52/107/2 58/117/2
f 11/22/2 8/18/2 31/66/2 33/71/2
f 33/72/7 31/67/7 32/70/7 34/74/7
f 9/20/1 2/6/1 27/56/1 35/75/1
f 35/76/8 27/57/8 28/60/8 36/78/8
f 56/112/5 58/118/5 52/108/5 51/106/5
f 45/95/5 55/111/5 54/110/5 46/97/5
f 83/157/5 56/112/5 51/106/5 80/154/5
f 77/151/5 53/109/5 60/120/5 81/155/5
f 81/155/5 60/120/5 56/112/5 83/157/5
f 48/99/5 47/98/5 59/119/5 57/114/5
f 57/114/5 59/119/5 55/111/5 45/95/5
f 53/109/5 50/105/5 49/103/5 60/120/5
f 60/120/5 49/103/5 58/118/5 56/112/5
f 25/52/1 3/7/1 48/100/1 57/115/1
f 73/147/4 15/29/4 41/84/4 85/160/4
f 41/83/3 42/86/3 62/125/3 61/121/3
f 43/88/3 44/91/3 63/127/3 64/128/3
f 85/159/3 41/83/3 61/121/3 87/164/3
f 52/107/2 5/11/2 43/89/2 64/129/2
f 5/12/4 16/32/4 44/92/4 43/90/4
f 15/29/4 1/3/4 42/87/4 41/84/4
f 80/154/5 51/106/5 63/126/5 88/165/5
f 51/106/5 52/108/5 64/130/5 63/126/5
f 20/41/2 15/28/2 72/145/2 65/131/2
f 132/293/2 65/131/2 72/145/2 71/143/2 66/133/2 143/326/2 144/329/2 140/317/2 142/323/2 137/308/2 139/314/2 133/296/2 134/299/2 131/290/2
f 135/302/2 138/311/2 139/314/2 137/308/2 146/335/2 141/320/2 142/323/2 140/317/2 145/332/2 143/326/2 66/133/2 65/131/2 132/293/2 136/305/2 134/299/2 133/296/2
f 16/31/1 19/38/1 68/137/1 69/139/1
f 159/374/1 67/135/1 70/141/1 69/139/1 68/137/1 149/344/1 147/338/1 148/341/1 153/356/1 150/347/1 151/350/1 152/353/1 162/383/1 157/368/1 155/362/1 156/365/1 154/359/1 161/380/1 158/371/1 160/377/1
f 149/344/1 68/137/1 67/135/1 159/374/1 161/380/1 154/359/1 157/368/1 162/383/1 150/347/1 153/356/1
f 74/148/6 16/32/6 69/140/6 89/167/6
f 89/167/6 69/140/6 70/142/6 91/173/6
f 19/39/5 20/42/5 65/132/5 68/138/5
f 68/138/5 65/132/5 66/134/5 67/136/5
f 72/146/6 90/171/6 92/177/6 71/144/6
f 92/176/1 90/170/1 94/182/1 96/187/1
f 15/29/6 73/147/6 90/171/6 72/146/6
f 73/147/6 74/148/6 89/167/6 90/171/6
f 54/110/5 79/153/5 87/163/5 61/122/5
f 79/153/5 80/154/5 88/165/5 87/163/5
f 44/91/3 86/161/3 88/166/3 63/127/3
f 86/161/3 85/159/3 87/164/3 88/166/3
f 16/32/4 74/148/4 86/162/4 44/92/4
f 74/148/4 73/147/4 85/160/4 86/162/4
f 59/119/5 82/156/5 84/158/5 55/111/5
f 82/156/5 81/155/5 83/157/5 84/158/5
f 47/98/5 78/152/5 82/156/5 59/119/5
f 78/152/5 77/151/5 81/155/5 82/156/5
f 55/111/5 84/158/5 79/153/5 54/110/5
f 84/158/5 83/157/5 80/154/5 79/153/5
f 71/144/6 92/177/6 75/149/6 21/44/6
f 92/177/6 91/173/6 76/150/6 75/149/6
f 94/183/6 93/179/6 95/185/6 96/188/6
f 89/168/2 91/174/2 95/186/2 93/180/2
f 91/175/9 92/178/9 96/189/9 95/186/9
f 90/172/10 89/169/10 93/181/10 94/184/10
f 107/221/3 106/218/3 144/330/3 143/327/3
f 160/378/3 118/252/3 119/255/3 159/375/3
f 103/209/11 108/224/11 145/333/11 140/318/11
f 161/381/11 120/258/11 116/247/11 117/249/11 158/372/11
f 144/331/4 106/219/4 103/210/4 140/319/4
f 117/250/4 118/253/4 160/379/4 158/373/4
f 145/334/5 108/225/5 107/222/5 143/328/5
f 120/259/5 161/382/5 159/376/5 119/256/5
f 104/212/3 105/215/3 142/324/3 141/321/3
f 125/273/3 113/239/3 121/261/3 154/360/3 156/366/3
f 102/206/11 100/200/11 146/336/11 137/309/11
f 157/369/11 114/241/11 126/276/11 155/363/11
f 142/325/4 105/216/4 102/207/4 137/310/4
f 126/277/4 125/274/4 156/367/4 155/364/4
f 146/337/5 100/201/5 104/213/5 141/322/5
f 114/242/5 157/370/5 154/361/5 121/262/5
f 101/203/3 99/197/3 139/315/3 138/312/3
f 123/267/3 115/244/3 162/384/3 152/354/3
f 133/297/11 97/191/11 98/194/11 135/303/11
f 150/348/11 124/270/11 122/264/11 151/351/11
f 139/316/4 99/198/4 97/192/4 133/298/4
f 122/265/4 123/268/4 152/355/4 151/352/4
f 101/204/5 138/313/5 135/304/5 98/195/5
f 124/271/5 150/349/5 162/385/5 115/245/5
f 111/233/3 112/236/3 134/300/3 136/306/3
f 148/342/3 127/279/3 128/282/3 153/357/3
f 109/227/11 110/230/11 132/294/11 131/291/11
f 129/285/11 130/288/11 147/339/11 149/345/11
f 112/237/4 109/228/4 131/292/4 134/301/4
f 130/289/4 127/280/4 148/343/4 147/340/4
f 132/295/5 110/231/5 111/234/5 136/307/5
f 153/358/5 128/283/5 129/286/5 149/346/5
